<?xml version="1.0" standalone="no"?>
<!DOCTYPE svg PUBLIC "-//W3C//DTD SVG 20010904//EN"
 "http://www.w3.org/TR/2001/REC-SVG-20010904/DTD/svg10.dtd">
<svg version="1.0" xmlns="http://www.w3.org/2000/svg"
 width="260.000000pt" height="260.000000pt" viewBox="0 0 260.000000 260.000000"
 preserveAspectRatio="xMidYMid meet">
<metadata>
Created by potrace 1.11, written by Peter Selinger 2001-2013
</metadata>
<g transform="translate(0.000000,260.000000) scale(0.100000,-0.100000)"
fill="#000000" stroke="none">
<path d="M987 1638 c-12 -28 -72 -166 -132 -307 -103 -240 -112 -257 -145
-273 l-35 -17 105 0 c96 0 102 2 70 13 -46 17 -48 39 -14 126 l27 70 124 0
124 0 19 -44 c35 -83 41 -118 24 -137 -9 -10 -26 -20 -38 -22 -11 -2 40 -5
114 -5 l135 -2 -41 19 c-45 21 -39 7 -229 469 -37 89 -72 162 -77 162 -5 0
-19 -23 -31 -52z m66 -248 l44 -105 -53 -3 c-30 -2 -78 -2 -108 0 l-53 3 39
90 c22 50 47 106 55 125 14 32 16 33 24 15 4 -11 28 -67 52 -125z"/>
<path d="M1408 1671 c19 -5 39 -14 45 -20 17 -17 17 -565 0 -582 -6 -6 -26
-15 -45 -20 -20 -5 51 -7 182 -6 201 2 218 4 257 24 64 34 88 76 88 150 0 70
-20 101 -87 130 l-37 17 28 17 c47 29 71 71 71 127 0 62 -29 108 -90 142 -43
24 -52 25 -245 27 -124 1 -187 -1 -167 -6z m304 -31 c20 -6 50 -26 67 -46 25
-28 31 -44 31 -80 0 -52 -22 -96 -58 -116 -15 -8 -58 -13 -106 -13 l-81 0 -3
124 c-2 93 1 126 10 133 18 11 96 10 140 -2z m49 -316 c69 -40 90 -137 42
-195 -45 -53 -119 -71 -212 -53 l-31 7 0 135 0 135 83 -5 c59 -3 94 -10 118
-24z"/>
</g>
</svg>
